<svg xmlns="http://www.w3.org/2000/svg" width="10" height="6" viewBox="0 0 10 6">
  <defs>
    <style>
      .cls-1 {
        fill: #555;
        fill-rule: evenodd;
      }
    </style>
  </defs>
  <path id="icon-downarrow.svg" class="cls-1" d="M261.2,58.916L265.96,53.3a0.165,0.165,0,0,0,.015-0.2,0.252,0.252,0,0,0-.211-0.1h-9.526a0.249,0.249,0,0,0-.211.1,0.167,0.167,0,0,0-.027.09,0.169,0.169,0,0,0,.042.11l4.763,5.613A0.256,0.256,0,0,0,261,59,0.259,0.259,0,0,0,261.2,58.916Z" transform="translate(-256 -53)"/>
</svg>
