<svg xmlns="http://www.w3.org/2000/svg" width="20" height="20" viewBox="0 0 20 20">
  <defs>
    <style>
      .cls-1 {
        fill: #cccdd0;
        fill-rule: evenodd;
      }
    </style>
  </defs>
  <path id="icon-search.svg" class="cls-1" d="M1451.51,51.146l-4.34-4.345a0.7,0.7,0,0,1-.08-0.061,8.138,8.138,0,0,0,1.35-4.519,8.219,8.219,0,1,0-3.7,6.868c0.02,0.024.04,0.051,0.06,0.074l4.35,4.345A1.67,1.67,0,0,0,1451.51,51.146Zm-11.29-3.552a5.372,5.372,0,1,1,5.37-5.372A5.375,5.375,0,0,1,1440.22,47.594Z" transform="translate(-1432 -34)"/>
</svg>
