<svg xmlns="http://www.w3.org/2000/svg" width="22" height="24" viewBox="0 0 22 24">
  <defs>
    <style>
      .cls-1 {
        fill: #cbcccf;
        fill-rule: evenodd;
      }
    </style>
  </defs>
  <path id="icon-notification.svg" class="cls-1" d="M1559.92,51.862V47.368a7.927,7.927,0,0,0-6.03-7.62A1.864,1.864,0,0,0,1552,38a1.805,1.805,0,0,0-1.89,1.7,7.955,7.955,0,0,0-6,7.67v4.349c0,2.125-1.42,2.493-3.1,4.224h21.98C1561.31,54.21,1559.92,53.988,1559.92,51.862Zm-6.26,6.531V57.28a0.75,0.75,0,0,0-.8-0.683h-1.71a0.753,0.753,0,0,0-.81.683v1.112a0.781,0.781,0,0,0,.04.155,1.835,1.835,0,0,0-.82,1.474,2.5,2.5,0,0,0,4.89,0,1.825,1.825,0,0,0-.83-1.473A0.423,0.423,0,0,0,1553.66,58.393Z" transform="translate(-1541 -38)"/>
</svg>
