<svg xmlns="http://www.w3.org/2000/svg" width="24" height="22" viewBox="0 0 24 22"><defs><style>.cls-1{fill:#288bf7;fill-rule:evenodd}</style></defs><path id="icon-reply.svg" class="cls-1" d="M1342.75 1296.3l-6.86-7.04a.834.834 0 0 0-1.21 0 .861.861 0 0 0-.25.62v3.52h-3q-9.555 0-11.72 5.54a12.922 12.922 0 0 0-.71 4.58 16.919 16.919 0 0 0 1.7 6.2c.03.06.07.17.14.33s.13.29.18.41a1.4 1.4 0 0 0 .18.3.442.442 0 0 0 .37.24.4.4 0 0 0 .32-.14.554.554 0 0 0 .11-.34 3.321 3.321 0 0 0-.03-.37 1.886 1.886 0 0 1-.04-.32c-.04-.62-.06-1.19-.06-1.69a11.726 11.726 0 0 1 .23-2.49 7.55 7.55 0 0 1 .65-1.9 4.739 4.739 0 0 1 1.07-1.39 6.515 6.515 0 0 1 1.41-.96 7.84 7.84 0 0 1 1.79-.58 17.936 17.936 0 0 1 2.06-.3c.69-.05 1.47-.08 2.35-.08h3v3.52a.861.861 0 0 0 .25.62.834.834 0 0 0 1.21 0l6.86-7.04a.845.845 0 0 0 .25-.62.861.861 0 0 0-.25-.62z" transform="translate(-1319 -1289)"/></svg>