<svg xmlns="http://www.w3.org/2000/svg" width="24" height="20" viewBox="0 0 24 20"><defs><style>.cls-1{fill:#6a6a6a;fill-rule:evenodd}</style></defs><path id="icon-camera.svg" class="cls-1" d="M1247 326.5a3.753 3.753 0 1 0 3.6 3.75 3.676 3.676 0 0 0-3.6-3.75zm9.6-3.75h-2.88a1.077 1.077 0 0 1-.95-.712l-.74-2.327a1.077 1.077 0 0 0-.95-.711h-8.16a1.077 1.077 0 0 0-.95.712l-.74 2.327a1.077 1.077 0 0 1-.95.711h-2.88a2.459 2.459 0 0 0-2.4 2.5v11.25a2.459 2.459 0 0 0 2.4 2.5h19.2a2.459 2.459 0 0 0 2.4-2.5v-11.25a2.459 2.459 0 0 0-2.4-2.5zm-9.6 13.75a6.255 6.255 0 1 1 6-6.25 6.131 6.131 0 0 1-6 6.25zm8.76-9.5a.876.876 0 1 1 .84-.875.86.86 0 0 1-.84.875z" transform="translate(-1235 -319)"/></svg>