<svg xmlns="http://www.w3.org/2000/svg" width="16" height="16" viewBox="0 0 16 16"><defs><style>.cls-1{fill:#fff;fill-rule:evenodd}</style></defs><path id="icon-like.svg" class="cls-1" d="M620 1040.96h-3.333a1.706 1.706 0 0 0-1.667 1.74v5.56a1.706 1.706 0 0 0 1.667 1.74h2a1.707 1.707 0 0 0 1.667-1.74v-6.96a.336.336 0 0 0-.334-.34zm11 2.61a1.6 1.6 0 0 0-.433-1.1 1.778 1.778 0 0 0 .426-1.33 1.748 1.748 0 0 0-1.739-1.57h-4.117a10.525 10.525 0 0 0 .53-2.79c0-1.51-1.229-2.78-2-2.78a2.109 2.109 0 0 0-1.209.42.37.37 0 0 0-.124.28v2.35l-1.5 3.39a.371.371 0 0 0 .017.33 1.057 1.057 0 0 1 .148.53v6.96a2.427 2.427 0 0 1-.057.52.357.357 0 0 0 .252.42 3.571 3.571 0 0 0 .8.1h6.12a1.546 1.546 0 0 0 1.51-1.21 1.661 1.661 0 0 0-.12-1.05 8.49 8.49 0 0 1 1.496-3.47z" transform="translate(-615 -1034)"/></svg>